<?xml version="1.0" encoding="UTF-8" standalone="no"?>
<!-- Created with Inkscape (http://www.inkscape.org/) -->

<svg
   width="134.43375mm"
   height="47.907791mm"
   viewBox="0 0 134.43375 47.907791"
   version="1.1"
   id="svg5"
   sodipodi:docname="logo.svg"
   inkscape:version="1.1.1 (3bf5ae0d25, 2021-09-20)"
   xmlns:inkscape="http://www.inkscape.org/namespaces/inkscape"
   xmlns:sodipodi="http://sodipodi.sourceforge.net/DTD/sodipodi-0.dtd"
   xmlns="http://www.w3.org/2000/svg"
   xmlns:svg="http://www.w3.org/2000/svg">
  <sodipodi:namedview
     id="namedview37"
     pagecolor="#ffffff"
     bordercolor="#666666"
     borderopacity="1.0"
     inkscape:pageshadow="2"
     inkscape:pageopacity="0.0"
     inkscape:pagecheckerboard="0"
     inkscape:document-units="mm"
     showgrid="false"
     fit-margin-top="0"
     fit-margin-left="0"
     fit-margin-right="0"
     fit-margin-bottom="0"
     inkscape:zoom="1.0342803"
     inkscape:cx="-106.83758"
     inkscape:cy="-54.627358"
     inkscape:window-width="2560"
     inkscape:window-height="1369"
     inkscape:window-x="1272"
     inkscape:window-y="-8"
     inkscape:window-maximized="1"
     inkscape:current-layer="layer1-9" />
  <defs
     id="defs2" />
  <g
     id="layer1"
     transform="translate(-59.79017,-162.9001)">
    <g
       transform="matrix(0.26458333,0,0,0.26458333,19.374302,49.789596)"
       id="layer1-9">
      <path
         d="m 293.50828,473.96722 v 36.89704 c 0,1.83664 -1.57975,4.86494 -3.4164,6.69613 l -37.58032,37.58031 c -0.91833,0.91833 -1.85852,1.36657 -2.4598,1.36657 -0.60129,0 -0.9566,-0.44824 -0.9566,-1.36657 v 4.09968 c 0,1.83665 1.57975,3.4164 3.4164,3.4164 h 81.85677 c 1.83665,0 3.41639,-1.57975 3.41639,-3.4164 v -81.99343 c 0,-1.83666 -1.57974,-3.27973 -3.41639,-3.27973 z m -52.06583,85.27316 c 0,1.83665 -1.58521,3.4164 -3.41639,3.4164 h -40.86007 v 44.54975 c 0,0.91832 0.36077,1.36656 0.95659,1.36656 0.59583,0 1.40483,-0.44824 2.32315,-1.36656 l 37.58033,-37.58032 c 1.83118,-1.83665 3.41639,-4.85948 3.41639,-6.69613 z"
         id="path84"
         style="fill:#7d8990;fill-opacity:1;fill-rule:nonzero;stroke:none" />
      <path
         d="m 292.55168,427.50427 c -0.60404,0 -1.54147,0.44823 -2.4598,1.36656 l -37.58032,37.71698 c -1.83118,1.83119 -3.4164,4.72282 -3.4164,6.55948 v 4.09966 77.89375 c 0,1.83666 1.58522,1.83666 3.4164,0 l 37.58032,-37.58031 c 1.83665,-1.83665 3.4164,-4.85949 3.4164,-6.69613 v -36.89704 -45.09639 c 0,-0.91833 -0.35247,-1.36656 -0.9566,-1.36656 z m -136.3824,46.46295 c -1.83665,0 -3.41639,1.44307 -3.41639,3.27973 v 81.99343 c 0,1.83665 1.57974,3.4164 3.41639,3.4164 h 81.85678 c 1.83665,0 3.41639,-1.57975 3.41639,-3.4164 v -81.99343 c 0,-1.83666 -1.57974,-3.27973 -3.41639,-3.27973 z"
         id="path88"
         style="fill:#e2001a;fill-opacity:1;fill-rule:nonzero;stroke:none" />
      <path
         d="m 252.51156,473.96722 c -1.83665,0 -3.4164,1.57974 -3.4164,3.41639 v 77.75709 c 0,0.91833 0.35553,1.36657 0.9566,1.36657 0.60128,0 1.54147,-0.44824 2.4598,-1.36657 l 37.58032,-37.58031 c 1.83665,-1.83665 3.4164,-4.86494 3.4164,-6.69613 v -36.89704 z m -12.0257,5.60288 c -0.60675,0 -1.54148,0.4537 -2.4598,1.36655 l -37.58033,37.71698 c -1.83118,1.86945 -3.27974,4.72829 -3.27974,6.55947 v 37.44368 h 40.86007 c 1.83665,0 3.41639,-1.57975 3.41639,-3.4164 v -78.30373 c 0,-0.91285 -0.35553,-1.36655 -0.95659,-1.36655 z"
         id="path100"
         style="fill:#8e1016;fill-opacity:1;fill-rule:nonzero;stroke:none" />
      <path
         d="m 362.52107,441.46936 c -0.97298,0 -1.74372,0.1911 -2.32314,0.81994 -0.57395,0.61221 -0.81993,1.48135 -0.81993,2.4598 v 81.99343 c 0,0.97298 0.24576,1.69999 0.81993,2.32314 0.56849,0.61222 1.35016,0.9566 2.32314,0.9566 h 22.27489 c 6.11124,0 11.572,-1.10965 16.53534,-3.4164 4.97427,-2.29581 9.25978,-5.58648 12.70898,-9.70256 3.45466,-4.12153 6.15497,-8.95368 8.06269,-14.62215 1.90225,-5.66302 2.73311,-11.80707 2.73311,-18.44853 0,-6.36816 -0.91286,-12.18422 -2.86977,-17.35528 -1.94598,-5.18197 -4.69549,-9.66975 -8.19934,-13.39225 -3.49292,-3.72251 -7.74018,-6.57588 -12.70899,-8.60931 -4.95786,-2.03891 -10.3749,-3.00643 -16.39868,-3.00643 z m 80.62688,0 c -0.96752,0 -1.74374,0.1911 -2.32315,0.81994 -0.56849,0.61221 -0.95659,1.48135 -0.95659,2.4598 v 81.99343 c 0,0.97298 0.38832,1.69999 0.95659,2.32314 0.57941,0.61222 1.35563,0.9566 2.32315,0.9566 h 9.15593 c 0.96752,0 1.71639,-0.33892 2.32315,-0.9566 0.61767,-0.61768 0.95659,-1.35016 0.95659,-2.32314 v -36.48709 h 30.61088 v 36.48709 c 0,0.97298 0.38832,1.70546 0.95658,2.32314 0.56849,0.61768 1.21351,0.9566 2.18649,0.9566 h 9.15593 c 0.97847,0 1.84212,-0.3446 2.45981,-0.9566 0.61768,-0.62315 0.95658,-1.35016 0.95658,-2.32314 V 444.7491 c 0,-0.97845 -0.3389,-1.84759 -0.95658,-2.4598 -0.61769,-0.62862 -1.48134,-0.81994 -2.45981,-0.81994 h -9.15593 c -0.97298,0 -1.618,0.1911 -2.18649,0.81994 -0.56848,0.61221 -0.95658,1.48135 -0.95658,2.4598 v 32.52405 H 455.58362 V 444.7491 c 0,-0.97845 -0.33892,-1.84759 -0.95659,-2.4598 -0.60676,-0.62862 -1.35563,-0.81994 -2.32315,-0.81994 z m -68.19121,12.29902 h 9.97587 c 3.72797,0 7.04597,0.7762 9.97588,2.32314 2.92442,1.55787 5.43889,3.62957 7.51606,6.28616 2.08262,2.65659 3.71156,5.88713 4.78294,9.5659 1.06045,3.67877 1.50322,7.63633 1.50322,11.88905 0,4.96334 -0.48103,9.39645 -1.63987,13.52892 -1.15338,4.11059 -2.88617,7.77843 -5.05626,10.7958 -2.17557,3.01189 -4.77202,5.28584 -7.78938,6.96943 -3.02282,1.6836 -6.39549,2.59647 -10.11253,2.59647 h -9.15593 z"
         id="path242"
         style="fill:#e2001a;fill-opacity:1;fill-rule:nonzero;stroke:none" />
      <text
         xml:space="preserve"
         style="font-style:normal;font-weight:normal;font-size:90.069px;line-height:1.25;font-family:sans-serif;letter-spacing:0px;fill:#e2001a;fill-opacity:1;stroke:none;stroke-width:2.25173"
         x="353.25974"
         y="597.17731"
         id="text2250"><tspan
           id="tspan2248"
           x="353.25974"
           y="597.17731"
           style="font-style:normal;font-variant:normal;font-weight:bold;font-stretch:normal;font-size:90.069px;font-family:Calibri;-inkscape-font-specification:'Calibri, Bold';font-variant-ligatures:normal;font-variant-caps:normal;font-variant-numeric:normal;font-variant-east-asian:normal;stroke-width:2.25173">EX</tspan></text>
      <text
         xml:space="preserve"
         style="font-style:normal;font-weight:normal;font-size:90.069px;line-height:1.25;font-family:sans-serif;fill:#5d6971;fill-opacity:1;stroke:none;stroke-width:2.25173"
         x="442.03336"
         y="597.17157"
         id="text3244"><tspan
           id="tspan3242"
           x="442.03336"
           y="597.17157"
           style="font-style:normal;font-variant:normal;font-weight:300;font-stretch:normal;font-size:90.069px;font-family:Calibri;-inkscape-font-specification:'Calibri, Light';font-variant-ligatures:normal;font-variant-caps:normal;font-variant-numeric:normal;font-variant-east-asian:normal;stroke-width:2.25173">PERTS</tspan></text>
    </g>
    <path
       d="m 155.44008,166.59503 c -0.16632,0 -0.31818,0.039 -0.43388,0.14462 -0.1186,0.10703 -0.18078,0.23285 -0.18078,0.39773 v 22.2726 c 0,0.16343 0.0621,0.31529 0.18078,0.43388 0.1157,0.11281 0.26756,0.18079 0.43388,0.18079 h 5.35121 c 1.09772,0 2.16218,-0.16632 3.14564,-0.47004 0.98347,-0.30806 1.82954,-0.73181 2.56714,-1.30165 0.73904,-0.57706 1.31466,-1.28863 1.73553,-2.13325 0.42086,-0.84317 0.65082,-1.8035 0.65082,-2.85639 0,-0.72747 -0.12583,-1.41735 -0.39773,-2.06094 -0.269,-0.64503 -0.62913,-1.20908 -1.0847,-1.69937 -0.45847,-0.49318 -0.99359,-0.87644 -1.5909,-1.19317 -0.59587,-0.31674 -1.22789,-0.53368 -1.88016,-0.65083 0.4686,-0.14029 0.94008,-0.37024 1.44628,-0.68698 0.50475,-0.31528 0.9878,-0.69999 1.41011,-1.15701 0.42231,-0.45703 0.76797,-0.98202 1.04855,-1.55475 0.28202,-0.57417 0.43388,-1.17726 0.43388,-1.80784 0,-1.00805 -0.18946,-1.86858 -0.57851,-2.60329 -0.38904,-0.73905 -0.90681,-1.36384 -1.55474,-1.844 -0.64504,-0.47871 -1.38697,-0.8504 -2.24172,-1.0847 -0.8562,-0.23285 -1.75867,-0.32541 -2.67561,-0.32541 z m 16.23441,0 c -0.16342,0 -0.2907,0.0405 -0.39772,0.14462 -0.10274,0.10564 -0.12004,0.2343 -0.0723,0.39773 l 4.48344,22.2726 c 0.0477,0.16054 0.16054,0.31529 0.28926,0.43388 0.12872,0.1142 0.2719,0.18079 0.43388,0.18079 h 1.77168 c 0.16488,0 0.30517,-0.0665 0.43388,-0.18079 0.12583,-0.11859 0.20538,-0.27334 0.2531,-0.43388 l 3.83263,-19.63315 3.86877,19.63315 c 0.0463,0.16054 0.12438,0.31529 0.2531,0.43388 0.12872,0.1142 0.2719,0.18079 0.43388,0.18079 h 1.77169 c 0.16632,0 0.31529,-0.0665 0.43388,-0.18079 0.11859,-0.11859 0.20537,-0.27334 0.2531,-0.43388 l 4.48344,-22.2726 c 0.0492,-0.16343 0.0203,-0.29215 -0.0723,-0.39773 -0.097,-0.10413 -0.19958,-0.14462 -0.36156,-0.14462 h -1.41012 c -0.35145,0 -0.59442,0.16777 -0.68698,0.54235 l -3.47106,19.66931 -3.86878,-19.66931 c -0.0941,-0.37458 -0.29504,-0.54235 -0.65082,-0.54235 h -1.77168 c -0.37314,0 -0.59587,0.16777 -0.68698,0.54235 l -3.83263,19.66931 -3.50721,-19.66931 c -0.0954,-0.37458 -0.35,-0.54235 -0.72314,-0.54235 z m -14.28194,2.06094 h 3.83262 c 1.31611,0 2.39358,0.3471 3.21796,1.04854 0.82004,0.70145 1.22933,1.66177 1.22933,2.85639 0,0.60888 -0.14173,1.14979 -0.39772,1.66321 -0.26033,0.51488 -0.58864,0.96611 -1.01239,1.33781 -0.42087,0.37603 -0.90826,0.65661 -1.44628,0.86776 -0.5409,0.2126 -1.11507,0.32541 -1.69937,0.32541 h -3.72415 z m 0,10.12391 h 3.83262 c 1.47954,0 2.68573,0.40784 3.61568,1.19317 0.92417,0.78388 1.37397,1.8223 1.37397,3.1818 0,0.70434 -0.10125,1.36528 -0.36158,1.95247 -0.25888,0.58429 -0.62623,1.09772 -1.0847,1.51859 -0.45702,0.42231 -0.98057,0.74193 -1.5909,0.97623 -0.61033,0.23719 -1.27272,0.36157 -1.95247,0.36157 h -3.83262 z"
       id="path238"
       style="fill:#5d6971;fill-opacity:1;fill-rule:nonzero;stroke:none;stroke-width:0.264583" />
  </g>
</svg>
