<svg xmlns="http://www.w3.org/2000/svg" xmlns:xlink="http://www.w3.org/1999/xlink" width="390" height="844" viewBox="0 0 390 844">
  <defs>
    <filter id="Rechteck_1621" x="-9" y="778" width="408" height="19" filterUnits="userSpaceOnUse">
      <feOffset dy="3" input="SourceAlpha"/>
      <feGaussianBlur stdDeviation="3" result="blur"/>
      <feFlood/>
      <feComposite operator="in" in2="blur"/>
      <feComposite in="SourceGraphic"/>
    </filter>
    <clipPath id="clip-Profil">
      <rect width="390" height="844"/>
    </clipPath>
  </defs>
  <g id="Profil" clip-path="url(#clip-Profil)">
    <rect width="390" height="844" fill="#fff"/>
    <g id="bottom_nav" data-name="bottom nav" transform="translate(0 784)">
      <rect id="Rechteck_1622" data-name="Rechteck 1622" width="390" height="60" fill="#fff"/>
      <g transform="matrix(1, 0, 0, 1, 0, -784)" filter="url(#Rechteck_1621)">
        <rect id="Rechteck_1621-2" data-name="Rechteck 1621" width="390" height="1" transform="translate(0 784)" fill="#b2002d"/>
      </g>
      <g id="Light_Bottom_Nav_Tab_on_Primary" data-name="Light 🌕/ Bottom Nav/Tab on Primary" transform="translate(12 4)">
        <g id="Light_Elevation_00dp" data-name="Light 🌕/Elevation/00dp">
          <rect id="Rectangle" width="80" height="56" fill="#fff" style="mix-blend-mode: multiply;isolation: isolate"/>
        </g>
        <text id="_Caption" data-name="✏️ Caption" transform="translate(40 45)" fill="#7a7a7a" font-size="12" font-family="Montserrat-Regular, Montserrat" letter-spacing="0.033em"><tspan x="-15.27" y="0">Scan</tspan></text>
        <g id="wifi_black_24dp" transform="translate(28 8)">
          <path id="Pfad_1102" data-name="Pfad 1102" d="M0,0H24V24H0Z" fill="none"/>
          <path id="Pfad_1103" data-name="Pfad 1103" d="M1,9l2,2a12.729,12.729,0,0,1,18,0l2-2A15.566,15.566,0,0,0,1,9Zm8,8,3,3,3-3A4.237,4.237,0,0,0,9,17ZM5,13l2,2a7.074,7.074,0,0,1,10,0l2-2A9.91,9.91,0,0,0,5,13Z" fill="#7a7a7a"/>
        </g>
      </g>
      <g id="Light_Bottom_Nav_Tab_on_Primary-2" data-name="Light 🌕/ Bottom Nav/Tab on Primary" transform="translate(107 4)">
        <g id="Light_Elevation_00dp-2" data-name="Light 🌕/Elevation/00dp">
          <rect id="Rectangle-2" data-name="Rectangle" width="80" height="56" fill="#fff" style="mix-blend-mode: multiply;isolation: isolate"/>
        </g>
        <text id="_Caption-2" data-name="✏️ Caption" transform="translate(40 45)" fill="#7a7a7a" font-size="12" font-family="Montserrat-Regular, Montserrat" letter-spacing="0.033em"><tspan x="-23.818" y="0">Suchen</tspan></text>
        <g id="search_black_24dp" transform="translate(28 8)">
          <path id="Pfad_1100" data-name="Pfad 1100" d="M0,0H24V24H0Z" fill="none"/>
          <path id="Pfad_1101" data-name="Pfad 1101" d="M15.5,14h-.79l-.28-.27a6.51,6.51,0,1,0-.7.7l.27.28v.79l5,4.99L20.49,19Zm-6,0A4.5,4.5,0,1,1,14,9.5,4.494,4.494,0,0,1,9.5,14Z" fill="#7a7a7a"/>
        </g>
      </g>
      <g id="Light_Bottom_Nav_Tab_on_Primary-3" data-name="Light 🌕/ Bottom Nav/Tab on Primary" transform="translate(203 4)">
        <g id="Light_Elevation_00dp-3" data-name="Light 🌕/Elevation/00dp">
          <rect id="Rectangle-3" data-name="Rectangle" width="80" height="56" fill="#fff" style="mix-blend-mode: multiply;isolation: isolate"/>
        </g>
        <text id="_Caption-3" data-name="✏️ Caption" transform="translate(40 45)" fill="#7a7a7a" font-size="12" font-family="Montserrat-Regular, Montserrat" letter-spacing="0.033em"><tspan x="-28.874" y="0">Kontakte</tspan></text>
        <g id="groups_black_24dp" transform="translate(28 8)">
          <rect id="Rechteck_1623" data-name="Rechteck 1623" width="24" height="24" fill="none"/>
          <g id="Gruppe_1519" data-name="Gruppe 1519">
            <path id="Pfad_1106" data-name="Pfad 1106" d="M12,12.75a10.611,10.611,0,0,1,4.24.9A2.984,2.984,0,0,1,18,16.38V18H6V16.39a2.963,2.963,0,0,1,1.76-2.73A10.44,10.44,0,0,1,12,12.75ZM4,13a2,2,0,1,0-2-2A2.006,2.006,0,0,0,4,13Zm1.13,1.1A6.983,6.983,0,0,0,4,14a6.95,6.95,0,0,0-2.78.58A2.011,2.011,0,0,0,0,16.43V18H4.5V16.39A4.5,4.5,0,0,1,5.13,14.1ZM20,13a2,2,0,1,0-2-2A2.006,2.006,0,0,0,20,13Zm4,3.43a2.011,2.011,0,0,0-1.22-1.85,6.8,6.8,0,0,0-3.91-.48,4.5,4.5,0,0,1,.63,2.29V18H24ZM12,6A3,3,0,1,1,9,9,3,3,0,0,1,12,6Z" fill="#7a7a7a"/>
          </g>
        </g>
      </g>
      <g id="Light_Bottom_Nav_Tab_on_Primary-4" data-name="Light 🌕/ Bottom Nav/Tab on Primary" transform="translate(298 4)">
        <g id="Light_Elevation_00dp-4" data-name="Light 🌕/Elevation/00dp">
          <rect id="Rectangle-4" data-name="Rectangle" width="80" height="56" fill="#fff" style="mix-blend-mode: multiply;isolation: isolate"/>
        </g>
        <text id="_Caption-4" data-name="✏️ Caption" transform="translate(40 45)" fill="#b2002d" font-size="12" font-family="Montserrat-Regular, Montserrat" letter-spacing="0.033em"><tspan x="-16.802" y="0">Profil</tspan></text>
        <g id="person_black_24dp" transform="translate(28 8)">
          <path id="Pfad_1104" data-name="Pfad 1104" d="M0,0H24V24H0Z" fill="none"/>
          <path id="Pfad_1105" data-name="Pfad 1105" d="M12,12A4,4,0,1,0,8,8,4,4,0,0,0,12,12Zm0,2c-2.67,0-8,1.34-8,4v2H20V18C20,15.34,14.67,14,12,14Z" fill="#b2002d"/>
        </g>
      </g>
    </g>
    <path id="Pfad_1114" data-name="Pfad 1114" d="M-10.378-3.811h345V148.8l-172.5,62.391L-10.378,148.8Z" transform="translate(32.878 3.811)" fill="#b2002d"/>
    <g id="Ellipse_1" data-name="Ellipse 1" transform="translate(131 119)" fill="#979797" stroke="#fff" stroke-width="5">
      <circle cx="64.5" cy="64.5" r="64.5" stroke="none"/>
      <circle cx="64.5" cy="64.5" r="62" fill="none"/>
    </g>
    <g id="Gruppe_1522" data-name="Gruppe 1522" transform="translate(-69 100)">
      <g id="verifiedTag" transform="translate(94 433)">
        <g id="Container">
          <rect id="_Elevation" data-name="☁️ Elevation" width="109" height="32" rx="16" fill="#fff"/>
          <g id="_Color_l_Container" data-name="🎨 Color l Container" fill="#fff" stroke="#7a7a7a" stroke-miterlimit="10" stroke-width="1">
            <rect width="109" height="32" rx="16" stroke="none"/>
            <rect x="0.5" y="0.5" width="108" height="31" rx="15.5" fill="none"/>
          </g>
          <rect id="_States" data-name="💡States" width="109" height="32" rx="16" fill="none"/>
          <g id="verified" transform="translate(6 6)">
            <rect id="Rechteck_1624" data-name="Rechteck 1624" width="35" height="20" rx="10" fill="#0cc437"/>
            <g id="verified_black_24dp" transform="translate(18 3)">
              <g id="Gruppe_1520" data-name="Gruppe 1520">
                <rect id="Rechteck_1625" data-name="Rechteck 1625" width="14" height="14" fill="none"/>
              </g>
              <g id="Gruppe_1521" data-name="Gruppe 1521" transform="translate(0.58 1)">
                <path id="Pfad_1109" data-name="Pfad 1109" d="M13.763,7.591,12.347,5.973l.2-2.141L10.45,3.356,9.354,1.5l-1.972.847L5.409,1.5l-1.1,1.851-2.094.47.2,2.146L1,7.591,2.416,9.21l-.2,2.146,2.094.476,1.1,1.851,1.972-.853,1.972.847,1.1-1.851,2.094-.476-.2-2.141ZM6.273,10.33l-2.2-2.21.859-.859L6.273,8.612,9.667,5.207l.859.859Z" transform="translate(-1 -1.5)" fill="#fff"/>
              </g>
            </g>
            <text id="_2" data-name="2" transform="translate(10 15)" fill="#fff" font-size="14" font-family="Roboto-Bold, Roboto" font-weight="700" letter-spacing="0.033em"><tspan x="-4.016" y="0">2</tspan></text>
          </g>
        </g>
        <text id="_Label" data-name="✏️ Label" transform="translate(47 21)" fill="rgba(0,0,0,0.87)" font-size="14" font-family="Roboto-Regular, Roboto" letter-spacing="0.018em"><tspan x="0" y="0">algebra</tspan></text>
      </g>
      <g id="Light_Chips_1._Input_A._w_Avatar" data-name="Light 🌕/ Chips/1. Input/A. w/ Avatar" transform="translate(190 511)">
        <g id="Container-2" data-name="Container" transform="translate(-0.094)">
          <rect id="_Elevation-2" data-name="☁️ Elevation" width="110" height="32" rx="16" transform="translate(0.094)" fill="#fff"/>
          <g id="_Color_l_Container-2" data-name="🎨 Color l Container" transform="translate(0.094)" fill="#fff" stroke="#979797" stroke-miterlimit="10" stroke-width="1">
            <rect width="110" height="32" rx="16" stroke="none"/>
            <rect x="0.5" y="0.5" width="109" height="31" rx="15.5" fill="none"/>
          </g>
          <rect id="_States-2" data-name="💡States" width="110" height="32" rx="16" transform="translate(0.094)" fill="none"/>
          <g id="add_black_24dp" transform="translate(4.094 3)">
            <path id="Pfad_1110" data-name="Pfad 1110" d="M0,0H26V26H0Z" fill="none"/>
            <path id="Pfad_1111" data-name="Pfad 1111" d="M20.167,13.667h-6.5v6.5H11.5v-6.5H5V11.5h6.5V5h2.167v6.5h6.5Z" transform="translate(0.417 0.417)" fill="#212121"/>
          </g>
        </g>
        <text id="_Label-2" data-name="✏️ Label" transform="translate(30 21)" fill="rgba(0,0,0,0.87)" font-size="14" font-family="Roboto-Regular, Roboto" letter-spacing="0.018em"><tspan x="0" y="0">hinzufügen</tspan></text>
      </g>
      <g id="verifiedTag-2" data-name="verifiedTag" transform="translate(212 433)">
        <g id="Container-3" data-name="Container">
          <rect id="_Elevation-3" data-name="☁️ Elevation" width="212" height="32" rx="16" fill="#fff"/>
          <g id="_Color_l_Container-3" data-name="🎨 Color l Container" fill="#fff" stroke="#7a7a7a" stroke-miterlimit="10" stroke-width="1">
            <rect width="212" height="32" rx="16" stroke="none"/>
            <rect x="0.5" y="0.5" width="211" height="31" rx="15.5" fill="none"/>
          </g>
          <rect id="_States-3" data-name="💡States" width="212" height="32" rx="16" fill="none"/>
          <g id="verified-2" data-name="verified" transform="translate(6 6)">
            <rect id="Rechteck_1624-2" data-name="Rechteck 1624" width="35" height="20" rx="10" fill="#0cc437"/>
            <g id="verified_black_24dp-2" data-name="verified_black_24dp" transform="translate(18 3)">
              <g id="Gruppe_1520-2" data-name="Gruppe 1520">
                <rect id="Rechteck_1625-2" data-name="Rechteck 1625" width="14" height="14" fill="none"/>
              </g>
              <g id="Gruppe_1521-2" data-name="Gruppe 1521" transform="translate(0.58 1)">
                <path id="Pfad_1109-2" data-name="Pfad 1109" d="M13.763,7.591,12.347,5.973l.2-2.141L10.45,3.356,9.354,1.5l-1.972.847L5.409,1.5l-1.1,1.851-2.094.47.2,2.146L1,7.591,2.416,9.21l-.2,2.146,2.094.476,1.1,1.851,1.972-.853,1.972.847,1.1-1.851,2.094-.476-.2-2.141ZM6.273,10.33l-2.2-2.21.859-.859L6.273,8.612,9.667,5.207l.859.859Z" transform="translate(-1 -1.5)" fill="#fff"/>
              </g>
            </g>
            <text id="_1" data-name="1" transform="translate(10 15)" fill="#fff" font-size="14" font-family="Roboto-Bold, Roboto" font-weight="700" letter-spacing="0.033em"><tspan x="-4.016" y="0">1</tspan></text>
          </g>
        </g>
        <text id="_Label-3" data-name="✏️ Label" transform="translate(47 21)" fill="rgba(0,0,0,0.87)" font-size="14" font-family="Roboto-Regular, Roboto" letter-spacing="0.018em"><tspan x="0" y="0">theoretische-informatik</tspan></text>
      </g>
      <g id="verifiedTag-3" data-name="verifiedTag" transform="translate(94 472)">
        <g id="Container-4" data-name="Container" transform="translate(0 9.5)">
          <rect id="_Elevation-4" data-name="☁️ Elevation" width="154" height="32" rx="16" transform="translate(0 -9.5)" fill="#fff"/>
          <g id="_Color_l_Container-4" data-name="🎨 Color l Container" transform="translate(0 -9.5)" fill="#fff" stroke="#7a7a7a" stroke-miterlimit="10" stroke-width="1">
            <rect width="154" height="32" rx="16" stroke="none"/>
            <rect x="0.5" y="0.5" width="153" height="31" rx="15.5" fill="none"/>
          </g>
          <rect id="_States-4" data-name="💡States" width="154" height="13" rx="6.5" fill="none"/>
          <g id="verified-3" data-name="verified" transform="translate(6 -3.5)">
            <rect id="Rechteck_1624-3" data-name="Rechteck 1624" width="35" height="20" rx="10" fill="#0cc437"/>
            <g id="verified_black_24dp-3" data-name="verified_black_24dp" transform="translate(18 3)">
              <g id="Gruppe_1520-3" data-name="Gruppe 1520">
                <rect id="Rechteck_1625-3" data-name="Rechteck 1625" width="14" height="14" fill="none"/>
              </g>
              <g id="Gruppe_1521-3" data-name="Gruppe 1521" transform="translate(0.58 1)">
                <path id="Pfad_1109-3" data-name="Pfad 1109" d="M13.763,7.591,12.347,5.973l.2-2.141L10.45,3.356,9.354,1.5l-1.972.847L5.409,1.5l-1.1,1.851-2.094.47.2,2.146L1,7.591,2.416,9.21l-.2,2.146,2.094.476,1.1,1.851,1.972-.853,1.972.847,1.1-1.851,2.094-.476-.2-2.141ZM6.273,10.33l-2.2-2.21.859-.859L6.273,8.612,9.667,5.207l.859.859Z" transform="translate(-1 -1.5)" fill="#fff"/>
              </g>
            </g>
            <text id="_7" data-name="7" transform="translate(10 15)" fill="#fff" font-size="14" font-family="Roboto-Bold, Roboto" font-weight="700" letter-spacing="0.033em"><tspan x="-4.016" y="0">7</tspan></text>
          </g>
        </g>
        <text id="_Label-4" data-name="✏️ Label" transform="translate(47 21)" fill="rgba(0,0,0,0.87)" font-size="14" font-family="Roboto-Regular, Roboto" letter-spacing="0.018em"><tspan x="0" y="0">android-studio</tspan></text>
      </g>
      <g id="verifiedTag-4" data-name="verifiedTag" transform="translate(257 472)">
        <g id="Container-5" data-name="Container">
          <rect id="_Elevation-5" data-name="☁️ Elevation" width="92" height="32" rx="16" fill="#fff"/>
          <g id="_Color_l_Container-5" data-name="🎨 Color l Container" fill="#fff" stroke="#7a7a7a" stroke-miterlimit="10" stroke-width="1">
            <rect width="92" height="32" rx="16" stroke="none"/>
            <rect x="0.5" y="0.5" width="91" height="31" rx="15.5" fill="none"/>
          </g>
          <rect id="_States-5" data-name="💡States" width="92" height="32" rx="16" fill="none"/>
          <g id="verified-4" data-name="verified" transform="translate(6 6)">
            <rect id="Rechteck_1624-4" data-name="Rechteck 1624" width="35" height="20" rx="10" fill="#0cc437"/>
            <g id="verified_black_24dp-4" data-name="verified_black_24dp" transform="translate(18 3)">
              <g id="Gruppe_1520-4" data-name="Gruppe 1520">
                <rect id="Rechteck_1625-4" data-name="Rechteck 1625" width="14" height="14" fill="none"/>
              </g>
              <g id="Gruppe_1521-4" data-name="Gruppe 1521" transform="translate(0.58 1)">
                <path id="Pfad_1109-4" data-name="Pfad 1109" d="M13.763,7.591,12.347,5.973l.2-2.141L10.45,3.356,9.354,1.5l-1.972.847L5.409,1.5l-1.1,1.851-2.094.47.2,2.146L1,7.591,2.416,9.21l-.2,2.146,2.094.476,1.1,1.851,1.972-.853,1.972.847,1.1-1.851,2.094-.476-.2-2.141ZM6.273,10.33l-2.2-2.21.859-.859L6.273,8.612,9.667,5.207l.859.859Z" transform="translate(-1 -1.5)" fill="#fff"/>
              </g>
            </g>
            <text id="_3" data-name="3" transform="translate(10 15)" fill="#fff" font-size="14" font-family="Roboto-Bold, Roboto" font-weight="700" letter-spacing="0.033em"><tspan x="-4.016" y="0">3</tspan></text>
          </g>
        </g>
        <text id="_Label-5" data-name="✏️ Label" transform="translate(47 21)" fill="rgba(0,0,0,0.87)" font-size="14" font-family="Roboto-Regular, Roboto" letter-spacing="0.018em"><tspan x="0" y="0">csgo</tspan></text>
      </g>
      <g id="verifiedTag-5" data-name="verifiedTag" transform="translate(358 472)">
        <g id="Container-6" data-name="Container">
          <rect id="_Elevation-6" data-name="☁️ Elevation" width="85" height="32" rx="16" fill="#fff"/>
          <g id="_Color_l_Container-6" data-name="🎨 Color l Container" fill="#fff" stroke="#7a7a7a" stroke-miterlimit="10" stroke-width="1">
            <rect width="85" height="32" rx="16" stroke="none"/>
            <rect x="0.5" y="0.5" width="84" height="31" rx="15.5" fill="none"/>
          </g>
          <rect id="_States-6" data-name="💡States" width="85" height="32" rx="16" fill="none"/>
          <g id="verified-5" data-name="verified" transform="translate(6 6)">
            <rect id="Rechteck_1624-5" data-name="Rechteck 1624" width="35" height="20" rx="10" fill="#0cc437"/>
            <g id="verified_black_24dp-5" data-name="verified_black_24dp" transform="translate(18 3)">
              <g id="Gruppe_1520-5" data-name="Gruppe 1520">
                <rect id="Rechteck_1625-5" data-name="Rechteck 1625" width="14" height="14" fill="none"/>
              </g>
              <g id="Gruppe_1521-5" data-name="Gruppe 1521" transform="translate(0.58 1)">
                <path id="Pfad_1109-5" data-name="Pfad 1109" d="M13.763,7.591,12.347,5.973l.2-2.141L10.45,3.356,9.354,1.5l-1.972.847L5.409,1.5l-1.1,1.851-2.094.47.2,2.146L1,7.591,2.416,9.21l-.2,2.146,2.094.476,1.1,1.851,1.972-.853,1.972.847,1.1-1.851,2.094-.476-.2-2.141ZM6.273,10.33l-2.2-2.21.859-.859L6.273,8.612,9.667,5.207l.859.859Z" transform="translate(-1 -1.5)" fill="#fff"/>
              </g>
            </g>
            <text id="_2-2" data-name="2" transform="translate(10 15)" fill="#fff" font-size="14" font-family="Roboto-Bold, Roboto" font-weight="700" letter-spacing="0.033em"><tspan x="-4.016" y="0">2</tspan></text>
          </g>
        </g>
        <text id="_Label-6" data-name="✏️ Label" transform="translate(47 21)" fill="rgba(0,0,0,0.87)" font-size="14" font-family="Roboto-Regular, Roboto" letter-spacing="0.018em"><tspan x="0" y="0">LoL</tspan></text>
      </g>
      <g id="verifiedTag-6" data-name="verifiedTag" transform="translate(94 511)">
        <g id="Container-7" data-name="Container" transform="translate(0 9.5)">
          <rect id="_Elevation-7" data-name="☁️ Elevation" width="87" height="32" rx="16" transform="translate(0 -9.5)" fill="#fff"/>
          <g id="_Color_l_Container-7" data-name="🎨 Color l Container" transform="translate(0 -9.5)" fill="#fff" stroke="#7a7a7a" stroke-miterlimit="10" stroke-width="1">
            <rect width="87" height="32" rx="16" stroke="none"/>
            <rect x="0.5" y="0.5" width="86" height="31" rx="15.5" fill="none"/>
          </g>
          <rect id="_States-7" data-name="💡States" width="87" height="13" rx="6.5" fill="none"/>
          <g id="verified-6" data-name="verified" transform="translate(6 -3.5)">
            <rect id="Rechteck_1624-6" data-name="Rechteck 1624" width="35" height="20" rx="10" fill="#0cc437"/>
            <g id="verified_black_24dp-6" data-name="verified_black_24dp" transform="translate(18 3)">
              <g id="Gruppe_1520-6" data-name="Gruppe 1520">
                <rect id="Rechteck_1625-6" data-name="Rechteck 1625" width="14" height="14" fill="none"/>
              </g>
              <g id="Gruppe_1521-6" data-name="Gruppe 1521" transform="translate(0.58 1)">
                <path id="Pfad_1109-6" data-name="Pfad 1109" d="M13.763,7.591,12.347,5.973l.2-2.141L10.45,3.356,9.354,1.5l-1.972.847L5.409,1.5l-1.1,1.851-2.094.47.2,2.146L1,7.591,2.416,9.21l-.2,2.146,2.094.476,1.1,1.851,1.972-.853,1.972.847,1.1-1.851,2.094-.476-.2-2.141ZM6.273,10.33l-2.2-2.21.859-.859L6.273,8.612,9.667,5.207l.859.859Z" transform="translate(-1 -1.5)" fill="#fff"/>
              </g>
            </g>
            <text id="_1-2" data-name="1" transform="translate(10 15)" fill="#fff" font-size="14" font-family="Roboto-Bold, Roboto" font-weight="700" letter-spacing="0.033em"><tspan x="-4.016" y="0">1</tspan></text>
          </g>
        </g>
        <text id="_Label-7" data-name="✏️ Label" transform="translate(47 21)" fill="rgba(0,0,0,0.87)" font-size="14" font-family="Roboto-Regular, Roboto" letter-spacing="0.018em"><tspan x="0" y="0">java</tspan></text>
      </g>
      <text id="Skills" transform="translate(94 422)" fill="#b2002d" font-size="15" font-family="Montserrat-Bold, Montserrat" font-weight="700" letter-spacing="0.05em"><tspan x="0" y="0">Skills</tspan></text>
    </g>
    <text id="Max_Mustermann" data-name="Max Mustermann" transform="translate(195 280)" fill="#b2002d" font-size="30" font-family="Montserrat-Bold, Montserrat" font-weight="700" letter-spacing="0.033em"><tspan x="-143.705" y="0">Max Mustermann</tspan></text>
    <text id="TINF20B2_-_Informatik" data-name="TINF20B2 - Informatik" transform="translate(195 307)" fill="#7a7a7a" font-size="12" font-family="Montserrat-Bold, Montserrat" font-weight="700" letter-spacing="0.033em"><tspan x="-73.09" y="0">TINF20B2 - Informatik</tspan></text>
    <text id="DHBW_Karlsruhe" data-name="DHBW Karlsruhe" transform="translate(195 329)" fill="#7a7a7a" font-size="12" font-family="Montserrat-Bold, Montserrat" font-weight="700" letter-spacing="0.033em"><tspan x="-55.94" y="0">DHBW Karlsruhe</tspan></text>
    <g id="Default_Button" data-name="Default Button" transform="translate(32 710)">
      <rect id="Rechteck_1469" data-name="Rechteck 1469" width="327" height="48" rx="8" fill="#b2002d"/>
      <text id="Zu_kontakten_hinzufügen" data-name="Zu kontakten hinzufügen" transform="translate(63 29)" fill="#fff" font-size="12" font-family="Montserrat-Bold, Montserrat" font-weight="700" letter-spacing="0.05em"><tspan x="0" y="0">ZU KONTAKTEN HINZUFÜGEN</tspan></text>
    </g>
    <text id="Biografie_Lorem_ipsum_dolor_sit_amet_consetetur_sadipscing_elitr_sed_diam_nonumy_eirmod_tempor_invidunt_ut_labore_et_dolore_magna_aliquyam_erat_sed_diam_voluptua._At_vero_eos_et_accusam_et_justo_duo_dolores_et_ea_rebum._Stet_clita_kasd_gubergren_no_sea" data-name="Biografie
Lorem ipsum dolor sit amet, consetetur sadipscing elitr, sed diam nonumy eirmod tempor invidunt ut labore et dolore magna aliquyam erat, sed diam voluptua. At vero eos et accusam et justo duo dolores et ea rebum. Stet clita kasd gubergren, no sea" transform="translate(22 360)" fill="#b2002d" font-size="15" font-family="Montserrat-Bold, Montserrat" font-weight="700" letter-spacing="0.05em"><tspan x="0" y="15">Biografie</tspan><tspan fill="#7a7a7a" font-size="10"><tspan x="0" y="30">Lorem ipsum dolor sit amet, consetetur sadipscing elitr, sed </tspan><tspan x="0" y="45">diam nonumy eirmod tempor invidunt ut labore et dolore </tspan><tspan x="0" y="60">magna aliquyam erat, sed diam voluptua. At vero eos et </tspan><tspan x="0" y="75">accusam et justo duo dolores et ea rebum. Stet clita kasd </tspan><tspan x="0" y="90">gubergren, no sea takimata sanctus est Lorem ipsum dolor </tspan><tspan x="0" y="105">sit amet.</tspan></tspan></text>
    <line id="Linie_195" data-name="Linie 195" x2="347" transform="translate(21.5 487.5)" fill="none" stroke="#707070" stroke-width="1"/>
    <line id="Linie_196" data-name="Linie 196" x2="347" transform="translate(21.5 662.5)" fill="none" stroke="#707070" stroke-width="1"/>
  </g>
</svg>
